<mxfile host="app.diagrams.net" agent="Mozilla/5.0 (Windows NT 10.0; Win64; x64) AppleWebKit/537.36 (KHTML, like Gecko) Chrome/134.0.0.0 Safari/537.36" version="26.2.8">
  <diagram id="C5RBs43oDa-KdzZeNtuy" name="Page-1">
    <mxGraphModel dx="2068" dy="1103" grid="1" gridSize="10" guides="1" tooltips="1" connect="1" arrows="1" fold="1" page="1" pageScale="1" pageWidth="1169" pageHeight="827" math="0" shadow="0">
      <root>
        <mxCell id="WIyWlLk6GJQsqaUBKTNV-0" />
        <mxCell id="WIyWlLk6GJQsqaUBKTNV-1" parent="WIyWlLk6GJQsqaUBKTNV-0" />
        <mxCell id="3eFUgQmK3bdMYS0TFb3g-24" value="" style="shape=flexArrow;endArrow=classic;startArrow=classic;html=1;rounded=0;entryX=1.012;entryY=0.501;entryDx=0;entryDy=0;entryPerimeter=0;exitX=1;exitY=1;exitDx=0;exitDy=0;" parent="WIyWlLk6GJQsqaUBKTNV-1" source="3eFUgQmK3bdMYS0TFb3g-25" target="TBtABxK_UixHB_T8IDZC-14" edge="1">
          <mxGeometry width="100" height="100" relative="1" as="geometry">
            <mxPoint x="420" y="256" as="sourcePoint" />
            <mxPoint x="880" y="200" as="targetPoint" />
          </mxGeometry>
        </mxCell>
        <mxCell id="3eFUgQmK3bdMYS0TFb3g-25" value="Data Bus" style="text;html=1;align=center;verticalAlign=middle;whiteSpace=wrap;rounded=0;" parent="WIyWlLk6GJQsqaUBKTNV-1" vertex="1">
          <mxGeometry x="300" y="215" width="130" height="40" as="geometry" />
        </mxCell>
        <mxCell id="3eFUgQmK3bdMYS0TFb3g-47" value="&lt;font style=&quot;font-size: 14px;&quot;&gt;Control Unit&lt;/font&gt;" style="swimlane;whiteSpace=wrap;html=1;startSize=30;" parent="WIyWlLk6GJQsqaUBKTNV-1" vertex="1">
          <mxGeometry x="450" y="150" width="350" height="210" as="geometry" />
        </mxCell>
        <mxCell id="3eFUgQmK3bdMYS0TFb3g-54" value="&lt;div&gt;Instruction Decoder&lt;/div&gt;" style="shape=step;perimeter=stepPerimeter;whiteSpace=wrap;html=1;fixedSize=1;" parent="3eFUgQmK3bdMYS0TFb3g-47" vertex="1">
          <mxGeometry x="20" y="90" width="100" height="60" as="geometry" />
        </mxCell>
        <mxCell id="TBtABxK_UixHB_T8IDZC-19" value="Special Purpose Registers" style="swimlane;whiteSpace=wrap;html=1;" parent="3eFUgQmK3bdMYS0TFb3g-47" vertex="1">
          <mxGeometry x="170" y="55" width="160" height="130" as="geometry" />
        </mxCell>
        <mxCell id="3eFUgQmK3bdMYS0TFb3g-79" value="Instr." style="rounded=0;whiteSpace=wrap;html=1;" parent="TBtABxK_UixHB_T8IDZC-19" vertex="1">
          <mxGeometry x="10" y="30" width="40" height="40" as="geometry" />
        </mxCell>
        <mxCell id="3eFUgQmK3bdMYS0TFb3g-70" value="Prog. Cntr." style="rounded=0;whiteSpace=wrap;html=1;" parent="TBtABxK_UixHB_T8IDZC-19" vertex="1">
          <mxGeometry x="10" y="80" width="40" height="40" as="geometry" />
        </mxCell>
        <mxCell id="Yd99dHToEcrlr1hVfnh--1" value="Mem. Addr." style="rounded=0;whiteSpace=wrap;html=1;" parent="TBtABxK_UixHB_T8IDZC-19" vertex="1">
          <mxGeometry x="60" y="80" width="40" height="40" as="geometry" />
        </mxCell>
        <mxCell id="TBtABxK_UixHB_T8IDZC-7" value="Reg. Addr. B" style="rounded=0;whiteSpace=wrap;html=1;" parent="TBtABxK_UixHB_T8IDZC-19" vertex="1">
          <mxGeometry x="110" y="80" width="40" height="40" as="geometry" />
        </mxCell>
        <mxCell id="TBtABxK_UixHB_T8IDZC-6" value="Reg. Addr. A" style="rounded=0;whiteSpace=wrap;html=1;" parent="TBtABxK_UixHB_T8IDZC-19" vertex="1">
          <mxGeometry x="110" y="30" width="40" height="40" as="geometry" />
        </mxCell>
        <mxCell id="3eFUgQmK3bdMYS0TFb3g-44" value="Flags" style="rounded=0;whiteSpace=wrap;html=1;" parent="TBtABxK_UixHB_T8IDZC-19" vertex="1">
          <mxGeometry x="60" y="30" width="40" height="40" as="geometry" />
        </mxCell>
        <mxCell id="TBtABxK_UixHB_T8IDZC-16" value="" style="endArrow=classic;startArrow=classic;html=1;rounded=0;exitX=0;exitY=0.5;exitDx=0;exitDy=0;entryX=1;entryY=0.5;entryDx=0;entryDy=0;" parent="3eFUgQmK3bdMYS0TFb3g-47" source="TBtABxK_UixHB_T8IDZC-19" target="3eFUgQmK3bdMYS0TFb3g-54" edge="1">
          <mxGeometry width="50" height="50" relative="1" as="geometry">
            <mxPoint x="260" y="170" as="sourcePoint" />
            <mxPoint x="100" y="140" as="targetPoint" />
          </mxGeometry>
        </mxCell>
        <mxCell id="TBtABxK_UixHB_T8IDZC-14" value="&lt;font style=&quot;font-size: 13px;&quot;&gt;8KB Memory&lt;/font&gt;" style="shape=cube;whiteSpace=wrap;html=1;boundedLbl=1;backgroundOutline=1;darkOpacity=0.05;darkOpacity2=0.1;" parent="WIyWlLk6GJQsqaUBKTNV-1" vertex="1">
          <mxGeometry x="180" y="215" width="120" height="80" as="geometry" />
        </mxCell>
        <mxCell id="TBtABxK_UixHB_T8IDZC-20" value="&lt;font style=&quot;font-size: 15px;&quot;&gt;CPU&lt;/font&gt;" style="swimlane;whiteSpace=wrap;html=1;startSize=30;" parent="WIyWlLk6GJQsqaUBKTNV-1" vertex="1">
          <mxGeometry x="430" y="100" width="390" height="370" as="geometry" />
        </mxCell>
        <mxCell id="3eFUgQmK3bdMYS0TFb3g-74" value="Register Bank &lt;font style=&quot;font-size: 9px;&quot;&gt;(General Purpose Registers)&lt;/font&gt;" style="rounded=0;whiteSpace=wrap;html=1;" parent="TBtABxK_UixHB_T8IDZC-20" vertex="1">
          <mxGeometry x="60" y="290" width="105" height="60" as="geometry" />
        </mxCell>
        <mxCell id="3eFUgQmK3bdMYS0TFb3g-0" value="ALU" style="shape=trapezoid;perimeter=trapezoidPerimeter;whiteSpace=wrap;html=1;fixedSize=1;" parent="TBtABxK_UixHB_T8IDZC-20" vertex="1">
          <mxGeometry x="220" y="290" width="120" height="60" as="geometry" />
        </mxCell>
        <mxCell id="TBtABxK_UixHB_T8IDZC-26" value="" style="endArrow=classic;startArrow=classic;html=1;rounded=0;exitX=1;exitY=0.5;exitDx=0;exitDy=0;entryX=0;entryY=0.5;entryDx=0;entryDy=0;" parent="TBtABxK_UixHB_T8IDZC-20" source="3eFUgQmK3bdMYS0TFb3g-74" target="3eFUgQmK3bdMYS0TFb3g-0" edge="1">
          <mxGeometry width="50" height="50" relative="1" as="geometry">
            <mxPoint x="290" y="300" as="sourcePoint" />
            <mxPoint x="303" y="270" as="targetPoint" />
          </mxGeometry>
        </mxCell>
        <mxCell id="TBtABxK_UixHB_T8IDZC-24" value="" style="endArrow=classic;startArrow=classic;html=1;rounded=0;exitX=0.5;exitY=0;exitDx=0;exitDy=0;entryX=0.25;entryY=1;entryDx=0;entryDy=0;" parent="WIyWlLk6GJQsqaUBKTNV-1" source="3eFUgQmK3bdMYS0TFb3g-74" target="3eFUgQmK3bdMYS0TFb3g-47" edge="1">
          <mxGeometry width="50" height="50" relative="1" as="geometry">
            <mxPoint x="550" y="370" as="sourcePoint" />
            <mxPoint x="600" y="320" as="targetPoint" />
          </mxGeometry>
        </mxCell>
        <mxCell id="TBtABxK_UixHB_T8IDZC-25" value="" style="endArrow=classic;startArrow=classic;html=1;rounded=0;exitX=0.5;exitY=0;exitDx=0;exitDy=0;entryX=0.75;entryY=1;entryDx=0;entryDy=0;" parent="WIyWlLk6GJQsqaUBKTNV-1" source="3eFUgQmK3bdMYS0TFb3g-0" target="3eFUgQmK3bdMYS0TFb3g-47" edge="1">
          <mxGeometry width="50" height="50" relative="1" as="geometry">
            <mxPoint x="563" y="400" as="sourcePoint" />
            <mxPoint x="548" y="370" as="targetPoint" />
          </mxGeometry>
        </mxCell>
      </root>
    </mxGraphModel>
  </diagram>
</mxfile>
